<svg xmlns="http://www.w3.org/2000/svg" viewBox="0 0 82.62 29.49"><defs><style>.cls-1,.cls-2{fill:#e30613;}.cls-2{stroke:#fff;stroke-miterlimit:10;}.cls-3{font-size:21.19px;fill:#1d1d1b;font-family:MyriadPro-Regular, Myriad Pro;}.cls-4{letter-spacing:-0.01em;}</style></defs><title>grabit_red_1</title><g id="Layer_2" data-name="Layer 2"><g id="Layer_1-2" data-name="Layer 1"><path class="cls-1" d="M0,5.64A5,5,0,0,1,5.11,0H26A5,5,0,0,1,31,5.64L29.35,20.8a6.39,6.39,0,0,1-6.11,5.64c-3,0-6,1-6.6,2.16s-1.67,1.19-2.36,0-3.7-2.16-6.67-2.16a6.32,6.32,0,0,1-6-5.64Z"/><path class="cls-2" d="M15.64,23.55a8.14,8.14,0,0,1-8.3-8"/><path class="cls-2" d="M15.64,23.55a8.12,8.12,0,0,0,8.09-8.17"/><text class="cls-3" transform="translate(34.48 21.19) scale(0.88 1)">G<tspan class="cls-4" x="13.69" y="0">r</tspan><tspan x="20.51" y="0">abit</tspan></text></g></g></svg>