<svg xmlns="http://www.w3.org/2000/svg" viewBox="0 0 87.8 30.49"><defs><style>.cls-1,.cls-4{fill:#fff;}.cls-2,.cls-3{fill:none;stroke-miterlimit:10;}.cls-2{stroke:#fff;}.cls-3{stroke:#1d1d1b;}.cls-4{font-size:21.19px;font-family:Lato-Black, Lato;font-weight:800;}.cls-5{letter-spacing:-0.01em;}.cls-6{letter-spacing:-0.01em;}</style></defs><title>grabit</title><g id="Layer_2" data-name="Layer 2"><g id="Layer_1-2" data-name="Layer 1"><path class="cls-1" d="M.53,6.14A5,5,0,0,1,5.61.5H26.46a5,5,0,0,1,5.05,5.64L29.85,21.3a6.39,6.39,0,0,1-6.11,5.64c-3,0-6,1-6.6,2.16s-1.67,1.19-2.36,0-3.7-2.16-6.67-2.16a6.32,6.32,0,0,1-6-5.64Z"/><path class="cls-2" d="M.53,6.14A5,5,0,0,1,5.61.5H26.46a5,5,0,0,1,5.05,5.64L29.85,21.3a6.39,6.39,0,0,1-6.11,5.64c-3,0-6,1-6.6,2.16s-1.67,1.19-2.36,0-3.7-2.16-6.67-2.16a6.32,6.32,0,0,1-6-5.64Z"/><path class="cls-3" d="M16.14,24.05a8.14,8.14,0,0,1-8.3-8"/><path class="cls-3" d="M16.14,24.05a8.12,8.12,0,0,0,8.09-8.17"/><text class="cls-4" transform="translate(34.98 21.69) scale(0.88 1)"><tspan class="cls-5">G</tspan><tspan class="cls-6" x="15.17" y="0">r</tspan><tspan x="23.15" y="0">abit</tspan></text></g></g></svg>