<svg xmlns="http://www.w3.org/2000/svg" viewBox="0 0 29.68 30.49"><defs><style>.cls-1{fill:#fff;}.cls-2,.cls-3{fill:none;stroke-miterlimit:10;}.cls-2{stroke:#fff;}.cls-3{stroke:#1d1d1b;}</style></defs><title>ThirdBackground</title><g id="Layer_2" data-name="Layer 2"><g id="Layer_1-2" data-name="Layer 1"><path class="cls-1" d="M.53,6.14A5.06,5.06,0,0,1,5.65.5H24.06a5,5,0,0,1,5.09,5.64L27.62,21.3c-.32,3.1-2.86,5.64-5.65,5.64s-5.53,1-6.09,2.16-1.55,1.19-2.19,0-3.41-2.16-6.16-2.16S2.28,24.4,2,21.3Z"/><path class="cls-2" d="M.53,6.14A5.06,5.06,0,0,1,5.65.5H24.06a5,5,0,0,1,5.09,5.64L27.62,21.3c-.32,3.1-2.86,5.64-5.65,5.64s-5.53,1-6.09,2.16-1.55,1.19-2.19,0-3.41-2.16-6.16-2.16S2.28,24.4,2,21.3Z"/><path class="cls-3" d="M15,24.05a7.81,7.81,0,0,1-7.67-8"/><path class="cls-3" d="M15,24.05a7.85,7.85,0,0,0,7.48-8.17"/></g></g></svg>